<svg width="250" height="250" viewBox="0 0 250 250" version="1.1" xmlns="http://www.w3.org/2000/svg" id="h-o-l-ds" xmlns:xlink="http://www.w3.org/1999/xlink"><g id="g34r76i4d_r"><defs><pattern xmlns="http://www.w3.org/2000/svg" id="g34r76i4d" patternUnits="userSpaceOnUse" width="15" height="15"><line stroke="#cccccc" x1="12" y1="0" x2="12" y2="15"></line><line stroke="#cccccc" x1="0" y1="12" x2="15" y2="12"></line></pattern></defs><rect xmlns="http://www.w3.org/2000/svg" width="100%" height="100%" fill="url(#g34r76i4d)"></rect></g><circle class="Rang" cx="125" cy="125" r="119.25" fill="none" stroke="#2f69c2" stroke-width="9.5" id="Rang0" layer="0"></circle><circle class="Rang" cx="125" cy="125" r="111.5" fill="none" stroke="#2f69c2" stroke-width="2.5" id="Rang1" layer="1"></circle><circle class="Rang" cx="125" cy="125" r="94.5" fill="none" stroke="#2f69c2" stroke-width="1" id="Rang2" layer="2"></circle><circle class="Rang" cx="125" cy="125" r="90" fill="none" stroke="#2f69c2" stroke-width="2" id="Rang3" layer="3"></circle><g font-size="7" font-style="normal" font-family="Calibri" fill="#ffffff" stroke="none" font-weight="normal" in="0" rad="124" cut="0" len="360" id="RangText4" layer="4"><text transform="translate(125.00,8.00) rotate(1.06)"><tspan>Л</tspan></text><text transform="translate(131.10,8.16) rotate(3.92)"><tspan>и</tspan></text><text transform="translate(136.68,8.58) rotate(6.67)"><tspan>ц</tspan></text><text transform="translate(142.25,9.28) rotate(9.34)"><tspan>е</tspan></text><text transform="translate(147.47,10.18) rotate(12.00)"><tspan>н</tspan></text><text transform="translate(152.90,11.38) rotate(14.53)"><tspan>з</tspan></text><text transform="translate(157.51,12.61) rotate(17.07)"><tspan>и</tspan></text><text transform="translate(162.85,14.29) rotate(19.70)"><tspan>я</tspan></text><text transform="translate(167.67,16.06) rotate(21.96)"><tspan> </tspan></text><text transform="translate(171.47,17.62) rotate(24.13)"><tspan>с</tspan></text><text transform="translate(175.81,19.61) rotate(26.60)"><tspan>е</tspan></text><text transform="translate(180.53,22.02) rotate(29.24)"><tspan>р</tspan></text><text transform="translate(185.30,24.74) rotate(31.96)"><tspan>и</tspan></text><text transform="translate(190.03,27.74) rotate(34.59)"><tspan>я</tspan></text><text transform="translate(194.24,30.68) rotate(36.85)"><tspan> </tspan></text><text transform="translate(197.51,33.18) rotate(39.24)"><tspan>Э</tspan></text><text transform="translate(201.86,36.79) rotate(42.12)"><tspan>Л</tspan></text><text transform="translate(206.35,40.91) rotate(44.62)"><tspan> </tspan></text><text transform="translate(209.26,43.82) rotate(47.84)"><tspan>№</tspan></text><text transform="translate(215.26,50.56) rotate(51.69)"><tspan>Ф</tspan></text><text transform="translate(219.38,55.86) rotate(54.70)"><tspan>С</tspan></text><text transform="translate(222.56,60.41) rotate(57.37)"><tspan>7</tspan></text><text transform="translate(225.41,64.95) rotate(60.00)"><tspan>7</tspan></text><text transform="translate(228.06,69.61) rotate(62.28)"><tspan>-</tspan></text><text transform="translate(229.87,73.12) rotate(64.56)"><tspan>0</tspan></text><text transform="translate(232.14,77.98) rotate(67.18)"><tspan>0</tspan></text><text transform="translate(234.18,82.94) rotate(69.81)"><tspan>0</tspan></text><text transform="translate(235.99,87.99) rotate(72.44)"><tspan>0</tspan></text><text transform="translate(237.57,93.11) rotate(74.76)"><tspan> </tspan></text><text transform="translate(238.62,97.09) rotate(77.11)"><tspan>о</tspan></text><text transform="translate(239.81,102.47) rotate(79.57)"><tspan>т</tspan></text><text transform="translate(240.59,106.92) rotate(81.68)"><tspan> </tspan></text><text transform="translate(241.16,110.99) rotate(84.00)"><tspan>0</tspan></text><text transform="translate(241.68,116.33) rotate(86.63)"><tspan>6</tspan></text><text transform="translate(241.95,121.69) rotate(88.81)"><tspan>.</tspan></text><text transform="translate(242.00,125.25) rotate(91.00)"><tspan>1</tspan></text><text transform="translate(241.87,130.61) rotate(93.63)"><tspan>1</tspan></text><text transform="translate(241.49,135.96) rotate(95.81)"><tspan>.</tspan></text><text transform="translate(241.10,139.51) rotate(98.00)"><tspan>2</tspan></text><text transform="translate(240.31,144.81) rotate(100.63)"><tspan>0</tspan></text><text transform="translate(239.28,150.08) rotate(103.25)"><tspan>1</tspan></text><text transform="translate(238.01,155.29) rotate(105.88)"><tspan>9</tspan></text><text transform="translate(236.50,160.44) rotate(108.20)"><tspan> </tspan></text><text transform="translate(235.19,164.33) rotate(110.24)"><tspan>г</tspan></text><text transform="translate(233.70,168.29) rotate(112.15)"><tspan>.</tspan></text><text transform="translate(232.33,171.58) rotate(114.03)"><tspan> </tspan></text><text transform="translate(230.63,175.32) rotate(116.34)"><tspan>*</tspan></text><text transform="translate(228.24,180.05) rotate(118.64)"><tspan> </tspan></text><text transform="translate(226.24,183.65) rotate(121.14)"><tspan>Л</tspan></text><text transform="translate(223.05,188.84) rotate(124.01)"><tspan>и</tspan></text><text transform="translate(219.88,193.46) rotate(126.75)"><tspan>ц</tspan></text><text transform="translate(216.49,197.93) rotate(129.42)"><tspan>е</tspan></text><text transform="translate(213.09,202.00) rotate(132.08)"><tspan>н</tspan></text><text transform="translate(209.33,206.10) rotate(134.61)"><tspan>з</tspan></text><text transform="translate(205.96,209.47) rotate(137.15)"><tspan>и</tspan></text><text transform="translate(201.82,213.25) rotate(139.78)"><tspan>я</tspan></text><text transform="translate(197.88,216.53) rotate(142.04)"><tspan> </tspan></text><text transform="translate(194.62,219.04) rotate(144.22)"><tspan>с</tspan></text><text transform="translate(190.73,221.79) rotate(146.68)"><tspan>е</tspan></text><text transform="translate(186.28,224.67) rotate(149.33)"><tspan>р</tspan></text><text transform="translate(181.53,227.44) rotate(152.04)"><tspan>и</tspan></text><text transform="translate(176.56,230.03) rotate(154.67)"><tspan>я</tspan></text><text transform="translate(171.91,232.19) rotate(156.94)"><tspan> </tspan></text><text transform="translate(168.11,233.77) rotate(159.33)"><tspan>Э</tspan></text><text transform="translate(162.80,235.72) rotate(162.21)"><tspan>Л</tspan></text><text transform="translate(156.98,237.54) rotate(164.71)"><tspan> </tspan></text><text transform="translate(153.01,238.60) rotate(167.93)"><tspan>№</tspan></text><text transform="translate(144.17,240.42) rotate(171.78)"><tspan>Ф</tspan></text><text transform="translate(137.52,241.33) rotate(174.78)"><tspan>С</tspan></text><text transform="translate(131.99,241.79) rotate(177.45)"><tspan>7</tspan></text><text transform="translate(126.63,241.99) rotate(180.08)"><tspan>7</tspan></text><text transform="translate(121.26,241.94) rotate(182.36)"><tspan>-</tspan></text><text transform="translate(117.32,241.75) rotate(184.64)"><tspan>7</tspan></text><text transform="translate(111.98,241.27) rotate(187.27)"><tspan>6</tspan></text><text transform="translate(106.67,240.55) rotate(189.89)"><tspan>9</tspan></text><text transform="translate(101.39,239.59) rotate(192.52)"><tspan>8</tspan></text><text transform="translate(96.16,238.39) rotate(195.15)"><tspan>0</tspan></text><text transform="translate(91.00,236.95) rotate(197.47)"><tspan> </tspan></text><text transform="translate(87.08,235.69) rotate(199.82)"><tspan>о</tspan></text><text transform="translate(81.91,233.78) rotate(202.28)"><tspan>т</tspan></text><text transform="translate(77.75,232.03) rotate(204.39)"><tspan> </tspan></text><text transform="translate(74.01,230.31) rotate(206.71)"><tspan>0</tspan></text><text transform="translate(69.24,227.86) rotate(209.34)"><tspan>6</tspan></text><text transform="translate(64.59,225.20) rotate(211.53)"><tspan>.</tspan></text><text transform="translate(61.56,223.31) rotate(213.71)"><tspan>1</tspan></text><text transform="translate(57.12,220.30) rotate(216.34)"><tspan>1</tspan></text><text transform="translate(52.83,217.09) rotate(218.53)"><tspan>.</tspan></text><text transform="translate(50.05,214.84) rotate(220.71)"><tspan>2</tspan></text><text transform="translate(46.02,211.32) rotate(223.34)"><tspan>0</tspan></text><text transform="translate(42.14,207.61) rotate(225.97)"><tspan>1</tspan></text><text transform="translate(38.44,203.72) rotate(228.59)"><tspan>9</tspan></text><text transform="translate(34.93,199.67) rotate(230.91)"><tspan> </tspan></text><text transform="translate(32.36,196.46) rotate(232.95)"><tspan>г</tspan></text><text transform="translate(29.84,193.07) rotate(235.00)"><tspan> </tspan></text><text transform="translate(27.50,189.68) rotate(237.30)"><tspan>*</tspan></text><text transform="translate(24.67,185.20) rotate(239.61)"><tspan> </tspan></text><text transform="translate(22.62,181.63) rotate(242.11)"><tspan>Л</tspan></text><text transform="translate(19.81,176.22) rotate(244.97)"><tspan>и</tspan></text><text transform="translate(17.48,171.13) rotate(247.72)"><tspan>ц</tspan></text><text transform="translate(15.39,165.92) rotate(250.39)"><tspan>е</tspan></text><text transform="translate(13.65,160.92) rotate(253.05)"><tspan>н</tspan></text><text transform="translate(12.07,155.59) rotate(255.58)"><tspan>з</tspan></text><text transform="translate(10.92,150.96) rotate(258.12)"><tspan>и</tspan></text><text transform="translate(9.80,145.47) rotate(260.75)"><tspan>я</tspan></text><text transform="translate(9.02,140.40) rotate(263.01)"><tspan> </tspan></text><text transform="translate(8.55,136.31) rotate(265.18)"><tspan>с</tspan></text><text transform="translate(8.18,131.56) rotate(267.65)"><tspan>е</tspan></text><text transform="translate(8.01,126.26) rotate(270.29)"><tspan>р</tspan></text><text transform="translate(8.08,120.77) rotate(273.01)"><tspan>и</tspan></text><text transform="translate(8.41,115.17) rotate(275.64)"><tspan>я</tspan></text><text transform="translate(8.96,110.07) rotate(277.90)"><tspan> </tspan></text><text transform="translate(9.55,106.00) rotate(280.29)"><tspan>Э</tspan></text><text transform="translate(10.61,100.45) rotate(283.17)"><tspan>Л</tspan></text><text transform="translate(12.04,94.52) rotate(285.67)"><tspan> </tspan></text><text transform="translate(13.18,90.57) rotate(288.89)"><tspan>№</tspan></text><text transform="translate(16.17,82.05) rotate(292.74)"><tspan>Ф</tspan></text><text transform="translate(18.81,75.88) rotate(295.75)"><tspan>С</tspan></text><text transform="translate(21.26,70.90) rotate(298.42)"><tspan>7</tspan></text><text transform="translate(23.85,66.20) rotate(301.05)"><tspan>7</tspan></text><text transform="translate(26.65,61.63) rotate(303.33)"><tspan>-</tspan></text><text transform="translate(28.84,58.35) rotate(305.60)"><tspan>7</tspan></text><text transform="translate(32.00,54.01) rotate(308.23)"><tspan>6</tspan></text><text transform="translate(35.35,49.82) rotate(310.86)"><tspan>9</tspan></text><text transform="translate(38.89,45.79) rotate(313.48)"><tspan>8</tspan></text><text transform="translate(42.61,41.93) rotate(316.11)"><tspan>0</tspan></text><text transform="translate(46.50,38.24) rotate(318.43)"><tspan> </tspan></text><text transform="translate(49.60,35.54) rotate(320.79)"><tspan>о</tspan></text><text transform="translate(53.89,32.09) rotate(323.24)"><tspan>т</tspan></text><text transform="translate(57.53,29.41) rotate(325.36)"><tspan> </tspan></text><text transform="translate(60.93,27.10) rotate(327.68)"><tspan>0</tspan></text><text transform="translate(65.49,24.27) rotate(330.30)"><tspan>6</tspan></text><text transform="translate(70.17,21.64) rotate(332.49)"><tspan>.</tspan></text><text transform="translate(73.34,20.02) rotate(334.68)"><tspan>1</tspan></text><text transform="translate(78.21,17.76) rotate(337.30)"><tspan>1</tspan></text><text transform="translate(83.17,15.73) rotate(339.49)"><tspan>.</tspan></text><text transform="translate(86.52,14.51) rotate(341.68)"><tspan>2</tspan></text><text transform="translate(91.62,12.86) rotate(344.30)"><tspan>0</tspan></text><text transform="translate(96.80,11.45) rotate(346.93)"><tspan>1</tspan></text><text transform="translate(102.03,10.28) rotate(349.56)"><tspan>9</tspan></text><text transform="translate(107.32,9.34) rotate(351.88)"><tspan> </tspan></text><text transform="translate(111.39,8.79) rotate(353.92)"><tspan>г</tspan></text><text transform="translate(115.59,8.38) rotate(355.96)"><tspan> </tspan></text><text transform="translate(119.70,8.12) rotate(358.27)"><tspan>*</tspan></text></g><g font-size="14" font-style="normal" font-family="Calibri" fill="#2f69c2" stroke="none" font-weight="bold" in="0" rad="112" cut="-64" len="126" id="RangText5" layer="5"><text transform="translate(36.92,82.04) rotate(-61.83)"><tspan>С</tspan></text><text transform="translate(40.03,76.17) rotate(-57.93)"><tspan>Р</tspan></text><text transform="translate(43.56,70.48) rotate(-54.20)"><tspan>Е</tspan></text><text transform="translate(47.09,65.55) rotate(-49.90)"><tspan>Д</tspan></text><text transform="translate(52.65,58.90) rotate(-45.42)"><tspan>С</tspan></text><text transform="translate(57.30,54.15) rotate(-41.67)"><tspan>Т</tspan></text><text transform="translate(61.89,50.03) rotate(-37.79)"><tspan>В</tspan></text><text transform="translate(67.47,45.66) rotate(-33.18)"><tspan>О</tspan></text><text transform="translate(74.74,40.87) rotate(-29.49)"><tspan> </tspan></text><text transform="translate(78.14,38.93) rotate(-24.99)"><tspan>М</tspan></text><text transform="translate(88.52,34.04) rotate(-19.37)"><tspan>А</tspan></text><text transform="translate(95.80,31.45) rotate(-15.17)"><tspan>С</tspan></text><text transform="translate(102.21,29.69) rotate(-11.28)"><tspan>С</tspan></text><text transform="translate(108.72,28.36) rotate(-6.79)"><tspan>О</tspan></text><text transform="translate(117.37,27.30) rotate(-2.17)"><tspan>В</tspan></text><text transform="translate(124.45,27.00) rotate(2.45)"><tspan>О</tspan></text><text transform="translate(133.15,27.34) rotate(7.44)"><tspan>Й</tspan></text><text transform="translate(141.45,28.39) rotate(11.03)"><tspan> </tspan></text><text transform="translate(145.28,29.12) rotate(14.61)"><tspan>И</tspan></text><text transform="translate(153.39,31.20) rotate(19.42)"><tspan>Н</tspan></text><text transform="translate(161.01,33.86) rotate(24.52)"><tspan>Ф</tspan></text><text transform="translate(169.55,37.71) rotate(29.81)"><tspan>О</tspan></text><text transform="translate(177.12,42.01) rotate(34.31)"><tspan>Р</tspan></text><text transform="translate(182.66,45.76) rotate(39.62)"><tspan>М</tspan></text><text transform="translate(191.53,53.05) rotate(45.24)"><tspan>А</tspan></text><text transform="translate(196.99,58.51) rotate(49.97)"><tspan>Ц</tspan></text><text transform="translate(202.45,64.96) rotate(54.88)"><tspan>И</tspan></text><text transform="translate(207.29,71.78) rotate(59.78)"><tspan>И</tspan></text></g><g font-size="14" font-style="normal" font-family="Calibri" fill="#2f69c2" stroke="none" font-weight="bold" in="1" rad="110" cut="-125" len="108" id="RangText6" layer="6"><text transform="translate(37.76,186.09) rotate(53.00)"><tspan>Р</tspan></text><text transform="translate(43.48,193.53) rotate(47.40)"><tspan>О</tspan></text><text transform="translate(51.27,201.85) rotate(41.82)"><tspan>С</tspan></text><text transform="translate(58.29,208.02) rotate(36.79)"><tspan>С</tspan></text><text transform="translate(65.82,213.55) rotate(31.30)"><tspan>И</tspan></text><text transform="translate(75.33,219.21) rotate(25.35)"><tspan>Й</tspan></text><text transform="translate(85.36,223.85) rotate(19.86)"><tspan>С</tspan></text><text transform="translate(94.18,226.94) rotate(14.70)"><tspan>К</tspan></text><text transform="translate(103.70,229.35) rotate(9.26)"><tspan>А</tspan></text><text transform="translate(114.00,230.93) rotate(3.77)"><tspan>Я</tspan></text><text transform="translate(123.95,231.49) rotate(-0.69)"><tspan> </tspan></text><text transform="translate(130.55,231.36) rotate(-5.71)"><tspan>Ф</tspan></text><text transform="translate(142.55,230.04) rotate(-11.32)"><tspan>Е</tspan></text><text transform="translate(151.12,228.25) rotate(-16.73)"><tspan>Д</tspan></text><text transform="translate(161.97,224.88) rotate(-22.15)"><tspan>Е</tspan></text><text transform="translate(170.05,221.50) rotate(-27.03)"><tspan>Р</tspan></text><text transform="translate(178.37,217.16) rotate(-32.36)"><tspan>А</tspan></text><text transform="translate(187.12,211.51) rotate(-38.16)"><tspan>Ц</tspan></text><text transform="translate(195.82,204.54) rotate(-44.14)"><tspan>И</tspan></text><text transform="translate(203.69,196.77) rotate(-49.80)"><tspan>Я</tspan></text></g><g font-size="18" font-style="normal" font-family="Calibri" fill="#2f69c2" stroke="none" font-weight="bold" in="0" rad="111.5" cut="-95" len="360" id="RangText7" layer="7"><text transform="translate(31.86,133.15) rotate(-92.25)"><tspan>*</tspan></text></g><g font-size="18" font-style="normal" font-family="Calibri" fill="#2f69c2" stroke="none" font-weight="bold" in="0" rad="111.5" cut="89.5" len="360" id="RangText8" layer="8"><text transform="translate(218.49,123.37) rotate(91.75)"><tspan>*</tspan></text></g><g font-size="14" font-style="normal" font-family="Calibri" fill="#2f69c2" stroke="none" font-weight="bold" in="0" rad="93" cut="-51.5" len="106" id="RangText9" layer="9"><text transform="translate(63.61,75.28) rotate(-47.32)"><tspan>Ф</tspan></text><text transform="translate(70.75,67.57) rotate(-40.89)"><tspan>Е</tspan></text><text transform="translate(76.21,62.87) rotate(-34.72)"><tspan>Д</tspan></text><text transform="translate(84.28,57.30) rotate(-28.55)"><tspan>Е</tspan></text><text transform="translate(90.62,53.87) rotate(-23.09)"><tspan>Р</tspan></text><text transform="translate(97.83,50.82) rotate(-17.04)"><tspan>А</tspan></text><text transform="translate(106.31,48.24) rotate(-10.49)"><tspan>Л</tspan></text><text transform="translate(115.35,46.59) rotate(-4.21)"><tspan>Ь</tspan></text><text transform="translate(123.45,46.02) rotate(2.08)"><tspan>Н</tspan></text><text transform="translate(132.66,46.37) rotate(8.64)"><tspan>А</tspan></text><text transform="translate(141.42,47.72) rotate(14.91)"><tspan>Я</tspan></text><text transform="translate(149.55,49.91) rotate(19.80)"><tspan> </tspan></text><text transform="translate(154.29,51.63) rotate(23.96)"><tspan>Г</tspan></text><text transform="translate(160.16,54.26) rotate(29.51)"><tspan>А</tspan></text><text transform="translate(167.87,58.64) rotate(35.31)"><tspan>З</tspan></text><text transform="translate(173.67,62.77) rotate(40.51)"><tspan>Е</tspan></text><text transform="translate(179.14,67.47) rotate(45.78)"><tspan>Т</tspan></text><text transform="translate(184.23,72.72) rotate(51.65)"><tspan>А</tspan></text></g><g font-size="14" font-style="normal" font-family="Calibri" fill="#2f69c2" stroke="none" font-weight="bold" in="0" rad="81" cut="-40.5" len="86.5" id="RangText10" layer="10"><text transform="translate(81.93,73.68) rotate(-36.81)"><tspan>Р</tspan></text><text transform="translate(87.77,69.30) rotate(-29.71)"><tspan>О</tspan></text><text transform="translate(95.85,64.68) rotate(-22.62)"><tspan>С</tspan></text><text transform="translate(102.54,61.88) rotate(-16.42)"><tspan>С</tspan></text><text transform="translate(109.49,59.82) rotate(-9.48)"><tspan>И</tspan></text><text transform="translate(118.33,58.33) rotate(-2.27)"><tspan>Я</tspan></text><text transform="translate(126.21,58.01) rotate(3.03)"><tspan> </tspan></text><text transform="translate(130.71,58.24) rotate(8.24)"><tspan>В</tspan></text><text transform="translate(138.32,59.34) rotate(13.46)"><tspan> </tspan></text><text transform="translate(142.70,60.38) rotate(18.69)"><tspan>К</tspan></text><text transform="translate(150.02,62.85) rotate(25.21)"><tspan>У</tspan></text><text transform="translate(156.82,66.04) rotate(31.54)"><tspan>Р</tspan></text><text transform="translate(163.04,69.84) rotate(37.76)"><tspan>С</tspan></text><text transform="translate(168.77,74.28) rotate(43.71)"><tspan>Е</tspan></text></g><g font-size="14" font-style="normal" font-family="Calibri" fill="#2f69c2" stroke="none" font-weight="bold" in="1" rad="90.5" cut="-106" len="148" id="RangText11" layer="11"><text transform="translate(41.37,148.98) rotate(71.49)"><tspan>Э</tspan></text><text transform="translate(43.92,156.54) rotate(65.82)"><tspan>Л</tspan></text><text transform="translate(47.73,164.97) rotate(61.11)"><tspan> </tspan></text><text transform="translate(50.16,169.36) rotate(54.46)"><tspan>№</tspan></text><text transform="translate(58.99,181.67) rotate(45.98)"><tspan>Ф</tspan></text><text transform="translate(66.37,189.27) rotate(39.91)"><tspan>С</tspan></text><text transform="translate(72.39,194.29) rotate(34.84)"><tspan>7</tspan></text><text transform="translate(78.58,198.58) rotate(29.89)"><tspan>7</tspan></text><text transform="translate(85.11,202.32) rotate(25.86)"><tspan>-</tspan></text><text transform="translate(89.34,204.35) rotate(21.84)"><tspan>0</tspan></text><text transform="translate(96.33,207.14) rotate(16.88)"><tspan>0</tspan></text><text transform="translate(103.53,209.31) rotate(11.92)"><tspan>0</tspan></text><text transform="translate(110.90,210.85) rotate(6.97)"><tspan>0</tspan></text><text transform="translate(118.37,211.75) rotate(2.01)"><tspan>0</tspan></text><text transform="translate(125.89,212.00) rotate(-2.13)"><tspan> </tspan></text><text transform="translate(130.91,211.80) rotate(-7.05)"><tspan>О</tspan></text><text transform="translate(140.76,210.56) rotate(-12.74)"><tspan>Т</tspan></text><text transform="translate(147.93,208.92) rotate(-16.82)"><tspan> </tspan></text><text transform="translate(152.74,207.46) rotate(-20.96)"><tspan>0</tspan></text><text transform="translate(159.76,204.75) rotate(-25.91)"><tspan>6</tspan></text><text transform="translate(166.53,201.45) rotate(-29.75)"><tspan>.</tspan></text><text transform="translate(170.11,199.39) rotate(-33.60)"><tspan>1</tspan></text><text transform="translate(176.37,195.21) rotate(-38.55)"><tspan>1</tspan></text><text transform="translate(182.25,190.51) rotate(-42.39)"><tspan>.</tspan></text><text transform="translate(185.30,187.72) rotate(-46.23)"><tspan>2</tspan></text><text transform="translate(190.49,182.27) rotate(-51.19)"><tspan>0</tspan></text><text transform="translate(195.20,176.40) rotate(-56.15)"><tspan>1</tspan></text><text transform="translate(199.38,170.14) rotate(-61.11)"><tspan>9</tspan></text><text transform="translate(203.00,163.54) rotate(-65.24)"><tspan> </tspan></text><text transform="translate(205.09,158.97) rotate(-69.03)"><tspan>Г</tspan></text><text transform="translate(207.40,152.93) rotate(-72.52)"><tspan>.</tspan></text></g><text x="125" y="112" r="0" fill="#2f69c2" stroke="none" font-size="26" font-family="Calibri" font-style="normal" font-weight="bold" transform="rotate(0 125 112)" id="Text12" layer="12"><tspan dy="7.08" text-anchor="middle">ОТДЕЛ</tspan></text><text x="125" y="139" r="0" fill="#2f69c2" stroke="none" font-size="26" font-family="Calibri" font-style="normal" font-weight="bold" transform="rotate(0 125 139)" id="Text13" layer="13"><tspan dy="7.08" text-anchor="middle">КАДРОВ</tspan></text><circle class="Rang" layer="15" id="Rang15" cx="125" cy="125" r="124" fill="none" stroke="#2f69c2" stroke-width="2"></circle><g class="Img_l" layer="16" id="Img16" x="125" y="125" s="100" al="0" transform="translate(0, 0) rotate(0 125 125) scale(1)"></g></svg>